<svg width="138" height="28" viewBox="0 0 138 28" fill="none" xmlns="http://www.w3.org/2000/svg">
<path fill-rule="evenodd" clip-rule="evenodd" d="M4.55528 0.449753C1.68461 1.51125 0.164875 5.43825 1.64144 7.97725C2.04157 8.66475 3.60669 9.83325 5.11978 10.5743C6.63287 11.3153 8.30757 12.4088 8.84163 13.0048C10.1594 14.4748 10.0913 17.2258 8.70604 18.4773C5.66879 21.2213 1.2153 17.2593 4.09925 14.3798C4.82591 13.6543 4.8818 13.3223 4.35659 12.8478C3.38587 11.9708 0.909799 13.3473 0.255085 15.1278C-1.86955 20.9063 9.89094 23.3028 12.838 17.6923C14.7761 14.0023 13.2874 10.9258 8.5057 8.73975C6.79669 7.95875 5.00079 6.77125 4.51488 6.10125C3.00178 4.01475 4.64881 0.977253 7.29423 0.977253C9.03699 0.977253 10.0044 2.18425 9.91862 4.25025C9.83449 6.26925 11.222 6.67875 11.9685 4.85475C13.3007 1.60175 8.75087 -1.10125 4.55528 0.449753ZM100.853 0.728253C97.7194 1.72925 95.5954 4.01425 95.5954 6.38525C95.5954 8.35125 96.3635 9.47725 97.7045 9.47725C98.2895 9.47725 98.3991 9.06025 98.1412 7.81825C97.9519 6.90525 98.0703 5.44875 98.4051 4.58125C99.6471 1.36375 105.604 -0.205247 108.22 1.99675C110.38 3.81475 109.436 7.96725 106.717 8.60975C105.367 8.92875 105.004 8.14925 105.004 4.93625C105.004 2.48175 104.764 2.20825 103.112 2.78075C102.36 3.04125 102.237 4.31175 102.237 11.7808V20.4773H103.62C104.993 20.4773 105.004 20.4413 105.004 16.0183C105.004 10.4303 105.192 9.97725 107.522 9.97725C110.004 9.97725 111.092 11.4473 111.092 14.8028C111.092 17.8603 110.071 19.1413 108.008 18.6733C107.061 18.4588 106.664 18.5773 106.664 19.0733C106.664 21.2263 110.891 21.7038 113.009 19.7903C114.467 18.4733 115.325 14.8488 114.709 12.6088C114.272 11.0133 112.344 8.97725 111.272 8.97725C110.317 8.97725 110.343 8.40175 111.351 7.19775C112.417 5.92375 112.41 3.97325 111.334 2.58575C109.388 0.0747535 105.214 -0.664747 100.853 0.728253ZM15.7396 1.78925C15.5238 1.98425 15.3473 6.28375 15.3473 11.3438V20.5438L16.8692 20.3853L18.3912 20.2273L18.6679 15.2273C18.8201 12.4773 19.146 9.94625 19.3923 9.60225C20.0293 8.71275 22.3598 8.82775 22.7594 9.76825C22.9443 10.2033 23.0954 12.3508 23.0954 14.5408C23.0954 18.1018 23.2387 18.6523 24.454 19.7498C26.1625 21.2938 26.8449 21.2878 28.8743 19.7108C30.2197 18.6658 30.5817 18.5723 30.9541 19.1738C31.2026 19.5743 32.2597 20.1573 33.304 20.4683C34.8415 20.9268 35.5194 20.8868 36.8621 20.2593C38.9662 19.2763 39.0725 19.1058 39.9209 15.3478C40.4123 13.1698 40.9032 12.1783 41.5452 12.0658C42.3715 11.9203 42.4656 12.6988 42.4656 19.6908C42.4656 27.7128 42.5558 28.0043 44.7159 26.9598C45.6058 26.5293 45.7862 25.8938 45.7862 23.1923C45.7862 20.1338 45.8493 19.9728 46.8565 20.4598C48.5506 21.2788 49.5141 21.0813 51.45 19.5188C53.2227 18.0878 53.2576 17.9778 53.2576 13.8103C53.2576 9.96575 53.1259 9.43325 51.874 8.22875C50.7184 7.11625 50.1035 6.92425 48.1455 7.06475C46.6263 7.17425 45.7071 7.01225 45.5344 6.60525C45.3877 6.25975 44.6505 5.97725 43.8968 5.97725C42.6543 5.97725 42.5104 6.19925 42.3577 8.35225C42.1479 11.3053 40.9281 11.5343 39.0265 8.97725C37.9263 7.49775 37.3585 7.20325 35.3501 7.07175C33.9626 6.98075 32.6106 7.18875 32.0986 7.57175C30.6309 8.66875 29.208 12.0943 29.1953 14.5613C29.1798 17.5258 28.7681 18.4773 27.5007 18.4773C26.1481 18.4773 25.6771 16.9108 26.095 13.7983C26.4641 11.0513 25.7767 8.05425 24.6273 7.39525C23.6659 6.84375 20.7864 6.88825 19.7747 7.47025C19.078 7.87125 18.9003 7.44875 18.6679 4.83775C18.4321 2.18625 18.2246 1.70575 17.2616 1.58125C16.6401 1.50075 15.9555 1.59475 15.7396 1.78925ZM55.5637 6.31075C54.9633 6.85275 55.1287 26.8818 55.7364 27.2208C56.0347 27.3873 56.7818 27.2803 57.3967 26.9828C58.3215 26.5358 58.5152 25.9403 58.5152 23.5428C58.5152 20.2413 58.7764 19.8008 60.2984 20.5368C61.791 21.2583 64.4447 20.2128 65.3855 18.5318C67.2744 15.1563 66.9894 10.3313 64.7734 8.17075C63.6068 7.03325 63.0943 6.88825 61.0007 7.10125C59.2629 7.27825 58.4964 7.15425 58.2877 6.66275C57.9867 5.95375 56.2124 5.72425 55.5637 6.31075ZM69.8252 8.72475C68.6923 10.0668 68.2944 11.1978 68.109 13.5998C67.819 17.3678 68.5451 18.8433 71.3638 20.2158L73.3943 21.2043L76.0552 19.9773C77.5185 19.3028 78.9026 18.6703 79.1307 18.5723C79.3587 18.4743 79.5457 18.8628 79.5457 19.4358C79.5457 20.2133 79.8961 20.4773 80.9293 20.4773C82.3129 20.4773 82.3129 20.4763 82.3129 15.4888C82.3129 10.7563 82.3821 10.4593 83.6594 9.70325C84.7109 9.08075 85.2583 9.02825 86.1582 9.46325C87.0785 9.90825 87.3763 9.86525 87.6381 9.24875C88.5058 7.20525 85.5837 6.09375 83.7347 7.76425C82.9416 8.48075 82.8331 8.48075 82.5288 7.76425C82.345 7.33125 81.5984 6.97725 80.8701 6.97725C79.5706 6.97725 79.5457 7.06275 79.5457 11.4998C79.5457 15.6353 79.4295 16.1278 78.1871 17.2498C76.3851 18.8783 73.3235 18.9368 72.1059 17.3658C70.8446 15.7393 71.0394 15.1393 72.9405 14.7958C75.095 14.4063 77.8854 11.9133 77.8854 10.3768C77.8854 8.18025 76.4155 6.97725 73.7314 6.97725C71.6045 6.97725 71.1164 7.19575 69.8252 8.72475ZM119.516 7.31275C118.502 7.68125 116.714 11.0493 116.305 13.3643C115.779 16.3353 117.57 19.6863 120.085 20.4358C122.293 21.0943 124.433 20.5638 126.449 18.8568L127.695 17.8028L128.94 18.8278C131.787 21.1703 134.443 21.4388 136.688 19.6108C138.195 18.3838 137.855 18.0798 135.266 18.3433C133.498 18.5238 132.633 18.3683 131.946 17.7463C130.712 16.6323 130.735 14.9778 131.984 14.9753C133.655 14.9723 136.381 13.1333 136.967 11.6143C137.38 10.5458 137.332 9.73275 136.79 8.56725C136.118 7.12475 135.825 6.97725 133.629 6.97725C129.906 6.97725 127.695 9.65875 127.695 14.1728C127.695 16.9053 126.022 18.4773 123.113 18.4773C119.894 18.4773 118.589 15.3263 121.563 14.7358C125.409 13.9728 127.483 9.81675 125.022 7.80475C124.065 7.02175 121.058 6.75325 119.516 7.31275ZM75.6717 9.73975C75.6717 11.5883 75.0967 12.4618 73.3395 13.2828C71.2979 14.2363 71.0129 13.9968 71.4855 11.7228C72.1596 8.47625 75.6717 6.81275 75.6717 9.73975ZM124.058 9.13625C124.823 10.2323 123.512 12.4628 121.596 13.3258C119.729 14.1668 119.139 13.4378 119.932 11.2688C121.074 8.13925 122.756 7.27075 124.058 9.13625ZM134.779 8.57725C135.144 8.90725 135.443 9.55175 135.443 10.0098C135.443 11.1648 133.486 13.2998 132.135 13.6188C131.18 13.8448 131.015 13.6438 131.015 12.2478C131.015 10.7453 132.763 7.97725 133.712 7.97725C133.933 7.97725 134.413 8.24725 134.779 8.57725ZM37.2517 10.1933C36.9777 11.5108 37.1117 12.0188 37.8256 12.3798C38.5533 12.7478 38.6884 13.3048 38.4471 14.9333C38.073 17.4513 37.2229 18.4773 35.5111 18.4773C33.7191 18.4773 32.5032 16.6623 32.506 13.9908C32.5087 10.9903 34.1718 8.47725 36.1548 8.47725C37.5101 8.47725 37.5837 8.59225 37.2517 10.1933ZM49.3785 9.47225C51.8734 11.9628 50.4616 18.7273 47.4465 18.7273C46.0801 18.7273 46.0607 18.6693 45.9024 14.0193C45.7856 10.5893 45.9362 9.19975 46.4559 8.90175C47.5788 8.25825 48.3043 8.39975 49.3785 9.47225ZM62.1452 9.18675C63.0329 9.77325 63.2194 10.5093 63.2194 13.4233C63.2194 16.3558 63.0207 17.1288 62.0395 18.0158C61.2209 18.7553 60.4998 18.9788 59.6874 18.7458C58.6115 18.4373 58.5152 18.0518 58.5152 14.0438C58.5152 8.69125 59.4671 7.41775 62.1452 9.18675Z" fill="black"/>
</svg>
